<?xml version="1.0" standalone="yes"?>
<svg xmlns="http://www.w3.org/2000/svg" width="550" height="3517">
<path style="fill:#ffffff; stroke:none;" d="M0 0L0 2948L26 2948L26 2967L0 2967L0 3431L550 3431L550 2967L473 2967L472 2949C495.731 2943.35 525.592 2948 550 2948L550 1950L489 1950L489 1931L550 1931L550 1365L467 1365L467 1283L550 1283L550 735L514 735L500.603 733.396L499 715L550 715L550 0L0 0z"/>
<path style="fill:#a6a6a6; stroke:none;" d="M393 37C388.407 52.5381 392 73.7827 392 90L392 203L393 203L393 91L393 37z"/>
<path style="fill:#010101; stroke:none;" d="M393 38L394 39L393 38z"/>
<path style="fill:#333333; stroke:none;" d="M393 39L393 203L394 203L394 88C394 74.2234 398.306 51.6453 393 39z"/>
<path style="fill:#a6a6a6; stroke:none;" d="M482 90L483 110L484 110L482 90z"/>
<path style="fill:#666666; stroke:none;" d="M483 90L483 91L538 91L520 90L483 90z"/>
<path style="fill:#010101; stroke:none;" d="M483 91L483 109L537 109L537 91L483 91z"/>
<path style="fill:#333333; stroke:none;" d="M537 91L537 109L538 109L537 91z"/>
<path style="fill:#a6a6a6; stroke:none;" d="M485 109L485 110L488 110L485 109M285 184L285 203L286 203L285 184z"/>
<path style="fill:#333333; stroke:none;" d="M286 184L286 185L341 185L323 184L286 184z"/>
<path style="fill:#010101; stroke:none;" d="M286 185L286 203L340 203L341 185L286 185z"/>
<path style="fill:#333333; stroke:none;" d="M340.333 201.667L340.667 202.333L340.333 201.667M337 202L338 203L337 202z"/>
<path style="fill:#010101; stroke:none;" d="M54 256L54 274L109 274L109 256L54 256z"/>
<path style="fill:#a6a6a6; stroke:none;" d="M109 256L109 274L110 274L109 256z"/>
<path style="fill:#333333; stroke:none;" d="M54 272L55 273L54 272z"/>
<path style="fill:#666666; stroke:none;" d="M54 274L54 275L109 275L91 274L54 274z"/>
<path style="fill:#a6a6a6; stroke:none;" d="M27 503L27 504L30 504L27 503M31 503L31 504L82 504C68.8722 498.492 45.3112 503 31 503z"/>
<path style="fill:#010101; stroke:none;" d="M27 504L27 522L82 522L82 504L27 504z"/>
<path style="fill:#666666; stroke:none;" d="M27 522L27 523L82 523L64 522L27 522z"/>
<path style="fill:#a6a6a6; stroke:none;" d="M274 636L275 636L275 526L357 526L357 636C360.004 628.841 358 617.744 358 610L358 553C358 546.966 360.795 531.431 356.972 526.604C354.343 523.284 344.786 525 341 525L293 525C288.913 525 277.833 523.062 275.028 526.604C270.873 531.849 274 549.401 274 556L274 636z"/>
<path style="fill:#010101; stroke:none;" d="M275 526L275 635L357 635L357 526L275 526z"/>
<path style="fill:#333333; stroke:none;" d="M275 635L275 636L357 636L332 635L275 635z"/>
<path style="fill:#a6a6a6; stroke:none;" d="M196 643C188.173 650.827 172.958 661.098 170 672L176 664L177 663C180.751 662.354 182.354 660.75 183 657L184 656C188.419 655.245 191.245 652.419 192 648L193 647L198 644L196 643z"/>
<path style="fill:#666666; stroke:none;" d="M197 643L198 644L197 643z"/>
<path style="fill:#333333; stroke:none;" d="M196 644L194 647L196 644M193 647L192 649L193 647z"/>
<path style="fill:#666666; stroke:none;" d="M193 648L194 649L193 648z"/>
<path style="fill:#333333; stroke:none;" d="M191 649L186 655L191 649z"/>
<path style="fill:#010101; stroke:none;" d="M185 655L186 656L185 655z"/>
<path style="fill:#333333; stroke:none;" d="M184 656L183 658L184 656z"/>
<path style="fill:#666666; stroke:none;" d="M184 657L185 658L184 657z"/>
<path style="fill:#333333; stroke:none;" d="M182 658L178 663L182 658M177 663L176 665L177 663z"/>
<path style="fill:#666666; stroke:none;" d="M177 664L178 665L177 664z"/>
<path style="fill:#333333; stroke:none;" d="M175 665L171 670L175 665M170 670L171 671L170 670z"/>
<path style="fill:#a6a6a6; stroke:none;" d="M225 698L226 699L225 698z"/>
<path style="fill:#666666; stroke:none;" d="M226 698L226 699L280 699L262 698L226 698z"/>
<path style="fill:#333333; stroke:none;" d="M225 699L225 790L226 790L226 727L225 699z"/>
<path style="fill:#010101; stroke:none;" d="M226 699L226 790L182 790L182 808L280 808L280 699L226 699z"/>
<path style="fill:#a6a6a6; stroke:none;" d="M280 699L280 808L281 808L281 732L280 699M499 715L499 716L550 716C536.872 710.492 513.311 715 499 715z"/>
<path style="fill:#666666; stroke:none;" d="M499 716L499 734L500 734L499 716z"/>
<path style="fill:#010101; stroke:none;" d="M500 716L500 734L550 734L550 716L500 716z"/>
<path style="fill:#666666; stroke:none;" d="M109 726C116.009 735.949 127.051 746.991 137 754C131.355 745.003 118.434 730.738 109 726z"/>
<path style="fill:#333333; stroke:none;" d="M111 727L112 728L111 727M113 729L114 730L113 729M114 730L115 731L114 730M115 731L116 732L115 731M116 732L117 733L116 732M117 733L118 734L117 733M118 734L119 735L118 734z"/>
<path style="fill:#a6a6a6; stroke:none;" d="M500 734L500 735L550 735C537.11 729.592 514.05 734 500 734z"/>
<path style="fill:#333333; stroke:none;" d="M119 735L120 736L119 735M120 736L121 737L120 736M121 737L122 738L121 737M122 738L123 739L122 738M123 739L124 740L123 739M124 740L125 741L124 740M125 741L126 742L125 741M126 742L127 743L126 742M129 745L130 746L129 745M130 746L131 747L130 746M131 747L132 748L131 747M132 748L133 749L132 748M133 749L134 750L133 749M135 751L136 752L135 751M136 752L137 753L136 752z"/>
<path style="fill:#a6a6a6; stroke:none;" d="M137 753L138 754L137 753M27.6667 789.333L28.3333 789.667L27.6667 789.333M30 789L30 790L70 790C59.4877 785.589 41.4343 789 30 789M181 789L181 790L225 790C213.536 785.19 193.481 789 181 789z"/>
<path style="fill:#010101; stroke:none;" d="M27 790L27 808L71 808L71 790L27 790z"/>
<path style="fill:#333333; stroke:none;" d="M181 790L181 808L182 808L181 790z"/>
<path style="fill:#a6a6a6; stroke:none;" d="M357.333 802.667L357.667 803.333L357.333 802.667z"/>
<path style="fill:#666666; stroke:none;" d="M358 802L358 804L440 804L440 802L358 802M27 808L27 809L71 809C59.5362 804.19 39.4807 808 27 808z"/>
<path style="fill:#a6a6a6; stroke:none;" d="M181 808L182 809L181 808z"/>
<path style="fill:#666666; stroke:none;" d="M182 808L182 809L280 809L250 808L182 808M74 917L63 930C66.9933 927.187 74.1108 922.241 74 917z"/>
<path style="fill:#a6a6a6; stroke:none;" d="M72 918L73 919L72 918z"/>
<path style="fill:#333333; stroke:none;" d="M73 918L74 919L73 918M72 919L73 920L72 919M71 920L72 921L71 920M70 921L71 922L70 921M69 922L70 923L69 922M68 923L69 924L68 923z"/>
<path style="fill:#a6a6a6; stroke:none;" d="M66 924L64 927L66 924z"/>
<path style="fill:#333333; stroke:none;" d="M67 924L68 925L67 924M66 925L67 926L66 925M65 926L66 927L65 926M64 927L65 928L64 927M63 928L64 929L63 928z"/>
<path style="fill:#a6a6a6; stroke:none;" d="M60 930L60 931L63 931L60 930z"/>
<path style="fill:#333333; stroke:none;" d="M62 929L63 930L62 929M61 930L48 944L61 930z"/>
<path style="fill:#666666; stroke:none;" d="M61 931L62 932L61 931z"/>
<path style="fill:#a6a6a6; stroke:none;" d="M58 932L59 933L58 932z"/>
<path style="fill:#666666; stroke:none;" d="M60 932L61 933L60 932M59 933L60 934L59 933M58 934L59 935L58 934z"/>
<path style="fill:#a6a6a6; stroke:none;" d="M55 935L56 936L55 935z"/>
<path style="fill:#666666; stroke:none;" d="M57 935L58 936L57 935M56 936L57 937L56 936M55 937L56 938L55 937z"/>
<path style="fill:#a6a6a6; stroke:none;" d="M52 938L53 939L52 938z"/>
<path style="fill:#666666; stroke:none;" d="M54 938L55 939L54 938M53 939L54 940L53 939z"/>
<path style="fill:#a6a6a6; stroke:none;" d="M50 940L51 941L50 940z"/>
<path style="fill:#666666; stroke:none;" d="M52 940L53 941L52 940z"/>
<path style="fill:#a6a6a6; stroke:none;" d="M49 941L50 942L49 941z"/>
<path style="fill:#666666; stroke:none;" d="M51 941L52 942L51 941M50 942L51 943L50 942z"/>
<path style="fill:#a6a6a6; stroke:none;" d="M47 943L48 944L47 943z"/>
<path style="fill:#666666; stroke:none;" d="M49 943L50 944L49 943M47.6667 944.333L48.3333 944.667L47.6667 944.333z"/>
<path style="fill:#a6a6a6; stroke:none;" d="M87 970L88 971L87 970z"/>
<path style="fill:#333333; stroke:none;" d="M88 970L88 971L131 971C119.774 966.29 100.219 970 88 970z"/>
<path style="fill:#a6a6a6; stroke:none;" d="M131 970L132 971L131 970z"/>
<path style="fill:#666666; stroke:none;" d="M87 971L88 972L87 971z"/>
<path style="fill:#010101; stroke:none;" d="M88 971L88 989L131 989L131 971L88 971z"/>
<path style="fill:#666666; stroke:none;" d="M131 971L131 989L132 989L131 971z"/>
<path style="fill:#a6a6a6; stroke:none;" d="M87 972L88 973L87 972z"/>
<path style="fill:#666666; stroke:none;" d="M87 973L88 974L87 973z"/>
<path style="fill:#a6a6a6; stroke:none;" d="M87 974L87 989L88 989L87 974M199 1071L200 1072L199 1071z"/>
<path style="fill:#666666; stroke:none;" d="M200.333 1071.67L200.667 1072.33L200.333 1071.67M277 1071L277 1073L279 1073L277 1071z"/>
<path style="fill:#333333; stroke:none;" d="M199.333 1072.67L199.667 1073.33L199.333 1072.67z"/>
<path style="fill:#a6a6a6; stroke:none;" d="M198 1073L199 1074L198 1073M277 1073L278 1074L277 1073z"/>
<path style="fill:#333333; stroke:none;" d="M278 1073L279 1074L278 1073z"/>
<path style="fill:#666666; stroke:none;" d="M198.667 1074.33L199.333 1074.67L198.667 1074.33M278.667 1074.33L279.333 1074.67L278.667 1074.33z"/>
<path style="fill:#a6a6a6; stroke:none;" d="M197 1075L199 1077L197 1075z"/>
<path style="fill:#333333; stroke:none;" d="M198 1075L199 1076L198 1075M279 1075L280 1076L279 1075z"/>
<path style="fill:#a6a6a6; stroke:none;" d="M280 1075L281 1076L280 1075z"/>
<path style="fill:#333333; stroke:none;" d="M197 1076L196 1080L197 1080L197 1076z"/>
<path style="fill:#666666; stroke:none;" d="M279.667 1076.33L280.333 1076.67L279.667 1076.33z"/>
<path style="fill:#a6a6a6; stroke:none;" d="M196 1077L197 1078L196 1077M279 1077L280 1078L279 1077z"/>
<path style="fill:#333333; stroke:none;" d="M280 1077L281 1078L280 1077z"/>
<path style="fill:#a6a6a6; stroke:none;" d="M281 1077L282 1078L281 1077M197 1078L198 1079L197 1078z"/>
<path style="fill:#666666; stroke:none;" d="M280.667 1078.33L281.333 1078.67L280.667 1078.33z"/>
<path style="fill:#a6a6a6; stroke:none;" d="M195 1079L196 1080L195 1079M280 1079L281 1080L280 1079z"/>
<path style="fill:#333333; stroke:none;" d="M281 1079L282 1080L281 1079z"/>
<path style="fill:#a6a6a6; stroke:none;" d="M282 1079L283 1080L282 1079z"/>
<path style="fill:#666666; stroke:none;" d="M195.667 1080.33L196.333 1080.67L195.667 1080.33M281.667 1080.33L282.333 1080.67L281.667 1080.33z"/>
<path style="fill:#a6a6a6; stroke:none;" d="M194 1081L195 1082L194 1081z"/>
<path style="fill:#333333; stroke:none;" d="M195 1081L196 1082L195 1081z"/>
<path style="fill:#010101; stroke:none;" d="M282 1081L283 1082L282 1081z"/>
<path style="fill:#a6a6a6; stroke:none;" d="M283 1081L284 1082L283 1081z"/>
<path style="fill:#666666; stroke:none;" d="M194.667 1082.33L195.333 1082.67L194.667 1082.33M282.667 1082.33L283.333 1082.67L282.667 1082.33z"/>
<path style="fill:#a6a6a6; stroke:none;" d="M193 1083L194 1084L193 1083z"/>
<path style="fill:#333333; stroke:none;" d="M194 1083L195 1084L194 1083M283 1083L284 1084L283 1083z"/>
<path style="fill:#a6a6a6; stroke:none;" d="M284 1083L285 1084L284 1083z"/>
<path style="fill:#666666; stroke:none;" d="M193.667 1084.33L194.333 1084.67L193.667 1084.33M283.667 1084.33L284.333 1084.67L283.667 1084.33z"/>
<path style="fill:#a6a6a6; stroke:none;" d="M192 1085L193 1086L192 1085z"/>
<path style="fill:#333333; stroke:none;" d="M193 1085L194 1086L193 1085z"/>
<path style="fill:#a6a6a6; stroke:none;" d="M283 1085L284 1086L283 1085z"/>
<path style="fill:#333333; stroke:none;" d="M284 1085L285 1086L284 1085z"/>
<path style="fill:#a6a6a6; stroke:none;" d="M285 1085L286 1086L285 1085z"/>
<path style="fill:#666666; stroke:none;" d="M192.667 1086.33L193.333 1086.67L192.667 1086.33M284.667 1086.33L285.333 1086.67L284.667 1086.33z"/>
<path style="fill:#a6a6a6; stroke:none;" d="M191 1087L192 1088L191 1087z"/>
<path style="fill:#333333; stroke:none;" d="M192 1087L190 1092L191 1092L192 1087z"/>
<path style="fill:#a6a6a6; stroke:none;" d="M284 1087L285 1088L284 1087z"/>
<path style="fill:#333333; stroke:none;" d="M285 1087L286 1088L285 1087z"/>
<path style="fill:#a6a6a6; stroke:none;" d="M286 1087L287 1088L286 1087z"/>
<path style="fill:#666666; stroke:none;" d="M192 1088L193 1089L192 1088M285.667 1088.33L286.333 1088.67L285.667 1088.33z"/>
<path style="fill:#a6a6a6; stroke:none;" d="M190 1089L191 1090L190 1089M285 1089L286 1090L285 1089z"/>
<path style="fill:#333333; stroke:none;" d="M286 1089L287 1090L286 1089z"/>
<path style="fill:#a6a6a6; stroke:none;" d="M287 1089L288 1090L287 1089M191 1090L192 1091L191 1090z"/>
<path style="fill:#666666; stroke:none;" d="M286.667 1090.33L287.333 1090.67L286.667 1090.33z"/>
<path style="fill:#a6a6a6; stroke:none;" d="M189 1091L190 1092L189 1091M286 1091L287 1092L286 1091z"/>
<path style="fill:#333333; stroke:none;" d="M287 1091L288 1092L287 1091z"/>
<path style="fill:#666666; stroke:none;" d="M189.667 1092.33L190.333 1092.67L189.667 1092.33M287.667 1092.33L288.333 1092.67L287.667 1092.33z"/>
<path style="fill:#a6a6a6; stroke:none;" d="M188 1093L190 1095L188 1093z"/>
<path style="fill:#333333; stroke:none;" d="M189 1093L190 1094L189 1093z"/>
<path style="fill:#010101; stroke:none;" d="M288 1093L289 1094L288 1093z"/>
<path style="fill:#333333; stroke:none;" d="M188 1094L187 1098L188 1098L188 1094z"/>
<path style="fill:#666666; stroke:none;" d="M288.667 1094.33L289.333 1094.67L288.667 1094.33z"/>
<path style="fill:#a6a6a6; stroke:none;" d="M187 1095L188 1096L187 1095z"/>
<path style="fill:#333333; stroke:none;" d="M289 1095L290 1096L289 1095z"/>
<path style="fill:#a6a6a6; stroke:none;" d="M290 1095L291 1096L290 1095z"/>
<path style="fill:#666666; stroke:none;" d="M188 1096L189 1097L188 1096M289.667 1096.33L290.333 1096.67L289.667 1096.33z"/>
<path style="fill:#a6a6a6; stroke:none;" d="M186 1097C190.173 1114.53 187 1135.99 187 1154L188 1154L188 1114L186 1097M289 1097L290 1098L289 1097z"/>
<path style="fill:#333333; stroke:none;" d="M290 1097L291 1098L290 1097z"/>
<path style="fill:#a6a6a6; stroke:none;" d="M291 1097L292 1098L291 1097z"/>
<path style="fill:#666666; stroke:none;" d="M186 1098L187 1099L186 1098M290.667 1098.33L291.333 1098.67L290.667 1098.33z"/>
<path style="fill:#010101; stroke:none;" d="M186 1099L186 1102L187 1102L186 1099z"/>
<path style="fill:#a6a6a6; stroke:none;" d="M290 1099L290 1212L291 1212L291 1133L290 1099z"/>
<path style="fill:#333333; stroke:none;" d="M291 1099L291 1212L188 1212L188 1213L291 1213L291 1231L292 1231L292 1139C292 1127.58 295.408 1109.5 291 1099M186 1102L187 1103L186 1102z"/>
<path style="fill:#010101; stroke:none;" d="M186 1103L186 1152L187 1152C187 1138.21 191.309 1115.65 186 1103z"/>
<path style="fill:#333333; stroke:none;" d="M186 1152L187 1153L186 1152z"/>
<path style="fill:#010101; stroke:none;" d="M186 1153L187 1154L186 1153z"/>
<path style="fill:#333333; stroke:none;" d="M440 1190L440 1191L490 1191C477.11 1185.59 454.05 1190 440 1190z"/>
<path style="fill:#666666; stroke:none;" d="M490 1190L491 1191L490 1190z"/>
<path style="fill:#333333; stroke:none;" d="M491 1190L491 1191L494 1191L491 1190z"/>
<path style="fill:#a6a6a6; stroke:none;" d="M494 1190L494 1209L495 1209L494 1190z"/>
<path style="fill:#010101; stroke:none;" d="M440 1191L440 1209L494 1209L494 1191L440 1191z"/>
<path style="fill:#333333; stroke:none;" d="M27 1212L27 1213L71 1213C59.5362 1208.19 39.4807 1212 27 1212z"/>
<path style="fill:#a6a6a6; stroke:none;" d="M186 1212L186 1231L187 1231L186 1212z"/>
<path style="fill:#666666; stroke:none;" d="M187 1212L188 1213L187 1212z"/>
<path style="fill:#010101; stroke:none;" d="M27 1213L27 1231L71 1231L71 1213L27 1213M187 1213L187 1231L291 1231L291 1213L187 1213z"/>
<path style="fill:#a6a6a6; stroke:none;" d="M467 1283L468 1284L467 1283z"/>
<path style="fill:#333333; stroke:none;" d="M468 1283L468 1284L550 1284L525 1283L468 1283z"/>
<path style="fill:#666666; stroke:none;" d="M467 1284L467 1365L468 1365L468 1309L467 1284z"/>
<path style="fill:#010101; stroke:none;" d="M468 1284L468 1365L550 1365L550 1284L468 1284z"/>
<path style="fill:#a6a6a6; stroke:none;" d="M471 1365L472 1366L471 1365z"/>
<path style="fill:#666666; stroke:none;" d="M280 1439L280 1440L363 1440L337 1439L280 1439z"/>
<path style="fill:#333333; stroke:none;" d="M280 1440L280 1549L281 1549L281 1473L280 1440z"/>
<path style="fill:#010101; stroke:none;" d="M281 1440L281 1549L362 1549L362 1440L281 1440z"/>
<path style="fill:#333333; stroke:none;" d="M362 1440L362 1549L363 1549L363 1473L362 1440z"/>
<path style="fill:#a6a6a6; stroke:none;" d="M281 1549L281 1550L362 1550L337 1549L281 1549z"/>
<path style="fill:#010101; stroke:none;" d="M49 1637L49 1747L131 1747L131 1638L78 1638L49 1637z"/>
<path style="fill:#333333; stroke:none;" d="M50 1637L50 1638L131 1638L106 1637L50 1637z"/>
<path style="fill:#666666; stroke:none;" d="M131 1637L131 1747L132 1747L132 1671L131 1637z"/>
<path style="fill:#a6a6a6; stroke:none;" d="M215 1733L216 1734L215 1733M260 1733L261 1734L260 1733M262 1733L263 1734L262 1733z"/>
<path style="fill:#333333; stroke:none;" d="M214 1734L214 1752L215 1752L214 1734z"/>
<path style="fill:#010101; stroke:none;" d="M215 1734L215 1752L263 1752L263 1734L215 1734z"/>
<path style="fill:#333333; stroke:none;" d="M263 1734L264 1735L263 1734z"/>
<path style="fill:#666666; stroke:none;" d="M263 1735L264 1736L263 1735z"/>
<path style="fill:#333333; stroke:none;" d="M263 1736L263 1752L264 1752L263 1736z"/>
<path style="fill:#a6a6a6; stroke:none;" d="M214 1752L215 1753L214 1752z"/>
<path style="fill:#666666; stroke:none;" d="M215 1752L215 1753L263 1753C250.586 1747.79 228.526 1752 215 1752z"/>
<path style="fill:#a6a6a6; stroke:none;" d="M263 1752L264 1753L263 1752M137 1894L136 1896L137 1894M263 1894L264 1895L263 1894z"/>
<path style="fill:#666666; stroke:none;" d="M264 1894L264 1896L266 1896L266 1894L264 1894z"/>
<path style="fill:#a6a6a6; stroke:none;" d="M266.667 1894.33L267.333 1894.67L266.667 1894.33z"/>
<path style="fill:#333333; stroke:none;" d="M137.333 1895.67L137.667 1896.33L137.333 1895.67M266 1895L266 1896L270 1896L266 1895z"/>
<path style="fill:#666666; stroke:none;" d="M270 1895L273 1897L270 1895z"/>
<path style="fill:#a6a6a6; stroke:none;" d="M272.667 1895.33L273.333 1895.67L272.667 1895.33M138 1896L139 1897L138 1896M269.667 1896.33L270.333 1896.67L269.667 1896.33z"/>
<path style="fill:#333333; stroke:none;" d="M273 1896L274 1897L273 1896z"/>
<path style="fill:#010101; stroke:none;" d="M274.667 1896.33L275.333 1896.67L274.667 1896.33z"/>
<path style="fill:#333333; stroke:none;" d="M276 1896L277 1897L276 1896z"/>
<path style="fill:#666666; stroke:none;" d="M277 1896L280 1898L277 1896z"/>
<path style="fill:#a6a6a6; stroke:none;" d="M279.667 1896.33L280.333 1896.67L279.667 1896.33z"/>
<path style="fill:#666666; stroke:none;" d="M137.667 1897.33L138.333 1897.67L137.667 1897.33z"/>
<path style="fill:#a6a6a6; stroke:none;" d="M276.667 1897.33L277.333 1897.67L276.667 1897.33z"/>
<path style="fill:#333333; stroke:none;" d="M280 1897L281 1898L280 1897z"/>
<path style="fill:#010101; stroke:none;" d="M281.667 1897.33L282.333 1897.67L281.667 1897.33z"/>
<path style="fill:#333333; stroke:none;" d="M283 1897L284 1898L283 1897z"/>
<path style="fill:#666666; stroke:none;" d="M284 1897L286 1899L286 1897L284 1897z"/>
<path style="fill:#a6a6a6; stroke:none;" d="M286.667 1897.33L287.333 1897.67L286.667 1897.33M137 1898L138 1899L137 1898z"/>
<path style="fill:#333333; stroke:none;" d="M138.333 1898.67L138.667 1899.33L138.333 1898.67z"/>
<path style="fill:#a6a6a6; stroke:none;" d="M282 1898L282 1899L285 1899L282 1898z"/>
<path style="fill:#333333; stroke:none;" d="M286 1898L286 1899L291 1899L286 1898z"/>
<path style="fill:#666666; stroke:none;" d="M291 1898L291 1900L293 1900L291 1898z"/>
<path style="fill:#a6a6a6; stroke:none;" d="M292 1898L292 1899L295 1899L292 1898M139 1899L140 1900L139 1899M289.667 1899.33L290.333 1899.67L289.667 1899.33z"/>
<path style="fill:#333333; stroke:none;" d="M293 1899L293 1900L297 1900L293 1899z"/>
<path style="fill:#666666; stroke:none;" d="M297 1899L299 1901L299 1899L297 1899z"/>
<path style="fill:#a6a6a6; stroke:none;" d="M299 1899L299 1900L302 1900L299 1899z"/>
<path style="fill:#666666; stroke:none;" d="M138.667 1900.33L139.333 1900.67L138.667 1900.33z"/>
<path style="fill:#a6a6a6; stroke:none;" d="M295 1900L295 1901L298 1901L295 1900z"/>
<path style="fill:#333333; stroke:none;" d="M299 1900L299 1901L304 1901L299 1900z"/>
<path style="fill:#666666; stroke:none;" d="M304 1900L306 1902L306 1900L304 1900z"/>
<path style="fill:#a6a6a6; stroke:none;" d="M306.667 1900.33L307.333 1900.67L306.667 1900.33M138 1901L139 1902L138 1901z"/>
<path style="fill:#333333; stroke:none;" d="M139.333 1901.67L139.667 1902.33L139.333 1901.67z"/>
<path style="fill:#a6a6a6; stroke:none;" d="M302 1901L302 1902L305 1902L302 1901z"/>
<path style="fill:#333333; stroke:none;" d="M306 1901L306 1902L310 1902L306 1901z"/>
<path style="fill:#666666; stroke:none;" d="M310 1901L313 1903L310 1901z"/>
<path style="fill:#a6a6a6; stroke:none;" d="M312.667 1901.33L313.333 1901.67L312.667 1901.33M140 1902L141 1903L140 1902M309.667 1902.33L310.333 1902.67L309.667 1902.33z"/>
<path style="fill:#333333; stroke:none;" d="M313 1902L314 1903L313 1902z"/>
<path style="fill:#010101; stroke:none;" d="M314.667 1902.33L315.333 1902.67L314.667 1902.33z"/>
<path style="fill:#333333; stroke:none;" d="M316 1902L317 1903L316 1902z"/>
<path style="fill:#666666; stroke:none;" d="M317 1902L320 1904L317 1902z"/>
<path style="fill:#a6a6a6; stroke:none;" d="M319.667 1902.33L320.333 1902.67L319.667 1902.33z"/>
<path style="fill:#666666; stroke:none;" d="M139.667 1903.33L140.333 1903.67L139.667 1903.33z"/>
<path style="fill:#a6a6a6; stroke:none;" d="M316.667 1903.33L317.333 1903.67L316.667 1903.33z"/>
<path style="fill:#333333; stroke:none;" d="M320.667 1903.33L321.333 1903.67L320.667 1903.33z"/>
<path style="fill:#010101; stroke:none;" d="M322 1903L323 1904L322 1903z"/>
<path style="fill:#333333; stroke:none;" d="M323 1903L324 1904L323 1903z"/>
<path style="fill:#666666; stroke:none;" d="M324 1903L324 1905L326 1905L326 1903L324 1903z"/>
<path style="fill:#a6a6a6; stroke:none;" d="M326.667 1903.33L327.333 1903.67L326.667 1903.33M139 1904L140 1905L139 1904z"/>
<path style="fill:#333333; stroke:none;" d="M140.333 1904.67L140.667 1905.33L140.333 1904.67z"/>
<path style="fill:#a6a6a6; stroke:none;" d="M323 1904L324 1905L323 1904z"/>
<path style="fill:#333333; stroke:none;" d="M326 1904L326 1905L331 1905L326 1904z"/>
<path style="fill:#666666; stroke:none;" d="M331 1904L331 1906L333 1906L331 1904z"/>
<path style="fill:#a6a6a6; stroke:none;" d="M332 1904L332 1905L335 1905L332 1904M141 1905L142 1906L141 1905M328 1905L328 1906L331 1906L328 1905z"/>
<path style="fill:#333333; stroke:none;" d="M333 1905L333 1906L337 1906L333 1905z"/>
<path style="fill:#666666; stroke:none;" d="M337 1905L340 1907L337 1905z"/>
<path style="fill:#a6a6a6; stroke:none;" d="M339.667 1905.33L340.333 1905.67L339.667 1905.33z"/>
<path style="fill:#666666; stroke:none;" d="M140.667 1906.33L141.333 1906.67L140.667 1906.33z"/>
<path style="fill:#a6a6a6; stroke:none;" d="M335 1906L335 1907L338 1907L335 1906z"/>
<path style="fill:#333333; stroke:none;" d="M340 1906L340 1907L344 1907L340 1906z"/>
<path style="fill:#666666; stroke:none;" d="M344 1906L346 1908L346 1906L344 1906z"/>
<path style="fill:#a6a6a6; stroke:none;" d="M346.667 1906.33L347.333 1906.67L346.667 1906.33M140 1907L141 1908L140 1907z"/>
<path style="fill:#333333; stroke:none;" d="M141.333 1907.67L141.667 1908.33L141.333 1907.67z"/>
<path style="fill:#a6a6a6; stroke:none;" d="M342 1907L342 1908L345 1908L342 1907z"/>
<path style="fill:#333333; stroke:none;" d="M346 1907L347 1908L346 1907z"/>
<path style="fill:#010101; stroke:none;" d="M347.667 1907.33L348.333 1907.67L347.667 1907.33z"/>
<path style="fill:#333333; stroke:none;" d="M349.667 1907.33L350.333 1907.67L349.667 1907.33z"/>
<path style="fill:#666666; stroke:none;" d="M351 1907L351 1909L353 1909L351 1907z"/>
<path style="fill:#a6a6a6; stroke:none;" d="M352.667 1907.33L353.333 1907.67L352.667 1907.33M142 1908L143 1909L142 1908M349.667 1908.33L350.333 1908.67L349.667 1908.33z"/>
<path style="fill:#333333; stroke:none;" d="M353 1908L354 1909L353 1908z"/>
<path style="fill:#010101; stroke:none;" d="M354.667 1908.33L355.333 1908.67L354.667 1908.33z"/>
<path style="fill:#333333; stroke:none;" d="M356 1908L357 1909L356 1908z"/>
<path style="fill:#666666; stroke:none;" d="M357 1908L360 1910L357 1908z"/>
<path style="fill:#a6a6a6; stroke:none;" d="M359 1908L359 1909L362 1909L359 1908z"/>
<path style="fill:#666666; stroke:none;" d="M141.667 1909.33L142.333 1909.67L141.667 1909.33z"/>
<path style="fill:#a6a6a6; stroke:none;" d="M356.667 1909.33L357.333 1909.67L356.667 1909.33z"/>
<path style="fill:#333333; stroke:none;" d="M360 1909L360 1910L364 1910L360 1909z"/>
<path style="fill:#666666; stroke:none;" d="M364 1909L366 1911L366 1909L364 1909z"/>
<path style="fill:#a6a6a6; stroke:none;" d="M366.667 1909.33L367.333 1909.67L366.667 1909.33M141 1910L142 1911L141 1910z"/>
<path style="fill:#333333; stroke:none;" d="M142.333 1910.67L142.667 1911.33L142.333 1910.67z"/>
<path style="fill:#a6a6a6; stroke:none;" d="M362 1910L362 1911L365 1911L362 1910z"/>
<path style="fill:#333333; stroke:none;" d="M366 1910L366 1911L371 1911L366 1910z"/>
<path style="fill:#666666; stroke:none;" d="M371 1910L371 1912L373 1912L371 1910z"/>
<path style="fill:#a6a6a6; stroke:none;" d="M372 1910L372 1911L375 1911L372 1910M143 1911L144 1912L143 1911M369.667 1911.33L370.333 1911.67L369.667 1911.33z"/>
<path style="fill:#333333; stroke:none;" d="M373 1911L373 1912L377 1912L373 1911z"/>
<path style="fill:#666666; stroke:none;" d="M377 1911L380 1913L377 1911z"/>
<path style="fill:#a6a6a6; stroke:none;" d="M379.667 1911.33L380.333 1911.67L379.667 1911.33z"/>
<path style="fill:#666666; stroke:none;" d="M142.667 1912.33L143.333 1912.67L142.667 1912.33z"/>
<path style="fill:#a6a6a6; stroke:none;" d="M375 1912L375 1913L378 1913L375 1912z"/>
<path style="fill:#333333; stroke:none;" d="M380 1912L381 1913L380 1912z"/>
<path style="fill:#010101; stroke:none;" d="M381 1912L382 1913L381 1912z"/>
<path style="fill:#333333; stroke:none;" d="M382.667 1912.33L383.333 1912.67L382.667 1912.33z"/>
<path style="fill:#666666; stroke:none;" d="M384 1912L384 1914L386 1914L386 1912L384 1912z"/>
<path style="fill:#a6a6a6; stroke:none;" d="M386.667 1912.33L387.333 1912.67L386.667 1912.33M142 1913L143 1914L142 1913z"/>
<path style="fill:#333333; stroke:none;" d="M143.333 1913.67L143.667 1914.33L143.333 1913.67z"/>
<path style="fill:#a6a6a6; stroke:none;" d="M382.667 1913.33L383.333 1913.67L382.667 1913.33z"/>
<path style="fill:#333333; stroke:none;" d="M386.667 1913.33L387.333 1913.67L386.667 1913.33z"/>
<path style="fill:#010101; stroke:none;" d="M388 1913L389 1914L388 1913z"/>
<path style="fill:#333333; stroke:none;" d="M389.667 1913.33L390.333 1913.67L389.667 1913.33z"/>
<path style="fill:#666666; stroke:none;" d="M391 1913L391 1915L393 1915L391 1913z"/>
<path style="fill:#a6a6a6; stroke:none;" d="M392.667 1913.33L393.333 1913.67L392.667 1913.33M144 1914L145 1915L144 1914M389.667 1914.33L390.333 1914.67L389.667 1914.33z"/>
<path style="fill:#333333; stroke:none;" d="M393.667 1914.33L394.333 1914.67L393.667 1914.33z"/>
<path style="fill:#010101; stroke:none;" d="M395 1914L396 1915L395 1914z"/>
<path style="fill:#333333; stroke:none;" d="M396.667 1914.33L397.333 1914.67L396.667 1914.33z"/>
<path style="fill:#666666; stroke:none;" d="M398 1914L398 1916L400 1916L398 1914z"/>
<path style="fill:#a6a6a6; stroke:none;" d="M399 1914L399 1915L402 1915L399 1914z"/>
<path style="fill:#666666; stroke:none;" d="M143.667 1915.33L144.333 1915.67L143.667 1915.33z"/>
<path style="fill:#a6a6a6; stroke:none;" d="M396.667 1915.33L397.333 1915.67L396.667 1915.33z"/>
<path style="fill:#333333; stroke:none;" d="M400 1915L400 1916L404 1916L400 1915z"/>
<path style="fill:#666666; stroke:none;" d="M404 1915L406 1917L406 1915L404 1915z"/>
<path style="fill:#a6a6a6; stroke:none;" d="M406.667 1915.33L407.333 1915.67L406.667 1915.33M143 1916L144 1917L143 1916z"/>
<path style="fill:#333333; stroke:none;" d="M144.333 1916.67L144.667 1917.33L144.333 1916.67z"/>
<path style="fill:#a6a6a6; stroke:none;" d="M402 1916L402 1917L405 1917L402 1916z"/>
<path style="fill:#333333; stroke:none;" d="M406 1916L406 1917L411 1917L406 1916z"/>
<path style="fill:#666666; stroke:none;" d="M411 1916L413 1918L413 1916L411 1916z"/>
<path style="fill:#a6a6a6; stroke:none;" d="M413.667 1916.33L414.333 1916.67L413.667 1916.33M145 1917L146 1918L145 1917M409 1917L409 1918L412 1918L409 1917z"/>
<path style="fill:#333333; stroke:none;" d="M413 1917L413 1918L417 1918L413 1917z"/>
<path style="fill:#666666; stroke:none;" d="M417 1917L420 1919L417 1917z"/>
<path style="fill:#a6a6a6; stroke:none;" d="M419.667 1917.33L420.333 1917.67L419.667 1917.33z"/>
<path style="fill:#666666; stroke:none;" d="M144.667 1918.33L145.333 1918.67L144.667 1918.33z"/>
<path style="fill:#a6a6a6; stroke:none;" d="M416.667 1918.33L417.333 1918.67L416.667 1918.33z"/>
<path style="fill:#333333; stroke:none;" d="M420 1918L421 1919L420 1918z"/>
<path style="fill:#010101; stroke:none;" d="M421.667 1918.33L422.333 1918.67L421.667 1918.33z"/>
<path style="fill:#333333; stroke:none;" d="M423 1918L424 1919L423 1918z"/>
<path style="fill:#666666; stroke:none;" d="M424 1918L426 1920L426 1918L424 1918z"/>
<path style="fill:#a6a6a6; stroke:none;" d="M426.667 1918.33L427.333 1918.67L426.667 1918.33M144 1919L145 1920L144 1919z"/>
<path style="fill:#333333; stroke:none;" d="M145.333 1919.67L145.667 1920.33L145.333 1919.67z"/>
<path style="fill:#a6a6a6; stroke:none;" d="M423.667 1919.33L424.333 1919.67L423.667 1919.33z"/>
<path style="fill:#333333; stroke:none;" d="M426.667 1919.33L427.333 1919.67L426.667 1919.33z"/>
<path style="fill:#010101; stroke:none;" d="M428.667 1919.33L429.333 1919.67L428.667 1919.33z"/>
<path style="fill:#333333; stroke:none;" d="M430 1919L431 1920L430 1919z"/>
<path style="fill:#666666; stroke:none;" d="M431 1919L434 1921L431 1919z"/>
<path style="fill:#a6a6a6; stroke:none;" d="M433.667 1919.33L434.333 1919.67L433.667 1919.33M146 1920L147 1921L146 1920M429.667 1920.33L430.333 1920.67L429.667 1920.33z"/>
<path style="fill:#333333; stroke:none;" d="M434 1920L434 1921L438 1921L434 1920z"/>
<path style="fill:#666666; stroke:none;" d="M438 1920L438 1922L440 1922L438 1920z"/>
<path style="fill:#a6a6a6; stroke:none;" d="M439 1920L439 1921L442 1921L439 1920z"/>
<path style="fill:#666666; stroke:none;" d="M145.667 1921.33L146.333 1921.67L145.667 1921.33z"/>
<path style="fill:#a6a6a6; stroke:none;" d="M436.667 1921.33L437.333 1921.67L436.667 1921.33z"/>
<path style="fill:#333333; stroke:none;" d="M440 1921L440 1922L444 1922L440 1921z"/>
<path style="fill:#666666; stroke:none;" d="M444 1921L446 1923L446 1921L444 1921z"/>
<path style="fill:#a6a6a6; stroke:none;" d="M446.667 1921.33L447.333 1921.67L446.667 1921.33M145 1922L146 1923L145 1922z"/>
<path style="fill:#010101; stroke:none;" d="M146 1922L147 1923L146 1922z"/>
<path style="fill:#a6a6a6; stroke:none;" d="M442 1922L442 1923L445 1923L442 1922z"/>
<path style="fill:#333333; stroke:none;" d="M446 1922L446 1923L451 1923L446 1922z"/>
<path style="fill:#666666; stroke:none;" d="M451 1922L453 1924L453 1922L451 1922z"/>
<path style="fill:#a6a6a6; stroke:none;" d="M453.667 1922.33L454.333 1922.67L453.667 1922.33z"/>
<path style="fill:#333333; stroke:none;" d="M146 1923L147 1924L146 1923z"/>
<path style="fill:#a6a6a6; stroke:none;" d="M147 1923L148 1924L147 1923M449 1923L449 1924L452 1924L449 1923z"/>
<path style="fill:#333333; stroke:none;" d="M453 1923L454 1924L453 1923z"/>
<path style="fill:#010101; stroke:none;" d="M454 1923L455 1924L454 1923z"/>
<path style="fill:#333333; stroke:none;" d="M455 1923L456 1924L455 1923z"/>
<path style="fill:#a6a6a6; stroke:none;" d="M456 1923L457 1924L456 1923z"/>
<path style="fill:#666666; stroke:none;" d="M146.667 1924.33L147.333 1924.67L146.667 1924.33z"/>
<path style="fill:#a6a6a6; stroke:none;" d="M146 1925L147 1926L146 1925z"/>
<path style="fill:#333333; stroke:none;" d="M147.333 1925.67L147.667 1926.33L147.333 1925.67z"/>
<path style="fill:#a6a6a6; stroke:none;" d="M148 1926L149 1927L148 1926z"/>
<path style="fill:#666666; stroke:none;" d="M147.667 1927.33L148.333 1927.67L147.667 1927.33z"/>
<path style="fill:#a6a6a6; stroke:none;" d="M147 1928L148 1929L147 1928z"/>
<path style="fill:#333333; stroke:none;" d="M148.333 1928.67L148.667 1929.33L148.333 1928.67z"/>
<path style="fill:#a6a6a6; stroke:none;" d="M149 1929L150 1930L149 1929z"/>
<path style="fill:#666666; stroke:none;" d="M148.667 1930.33L149.333 1930.67L148.667 1930.33z"/>
<path style="fill:#a6a6a6; stroke:none;" d="M148 1931L149 1932L148 1931z"/>
<path style="fill:#333333; stroke:none;" d="M149.333 1931.67L149.667 1932.33L149.333 1931.67z"/>
<path style="fill:#666666; stroke:none;" d="M489 1931L489 1949L490 1949L489 1931z"/>
<path style="fill:#010101; stroke:none;" d="M490 1931L490 1949L550 1949L550 1931L490 1931z"/>
<path style="fill:#a6a6a6; stroke:none;" d="M150 1932L151 1933L150 1932z"/>
<path style="fill:#666666; stroke:none;" d="M149.667 1933.33L150.333 1933.67L149.667 1933.33z"/>
<path style="fill:#a6a6a6; stroke:none;" d="M149 1934L150 1935L149 1934z"/>
<path style="fill:#333333; stroke:none;" d="M150.333 1934.67L150.667 1935.33L150.333 1934.67z"/>
<path style="fill:#a6a6a6; stroke:none;" d="M151 1935L152 1936L151 1935z"/>
<path style="fill:#666666; stroke:none;" d="M150.667 1936.33L151.333 1936.67L150.667 1936.33z"/>
<path style="fill:#a6a6a6; stroke:none;" d="M150 1937L151 1938L150 1937z"/>
<path style="fill:#333333; stroke:none;" d="M151.333 1937.67L151.667 1938.33L151.333 1937.67z"/>
<path style="fill:#a6a6a6; stroke:none;" d="M152 1938L153 1939L152 1938z"/>
<path style="fill:#666666; stroke:none;" d="M151.667 1939.33L152.333 1939.67L151.667 1939.33z"/>
<path style="fill:#a6a6a6; stroke:none;" d="M151 1940L152 1941L151 1940z"/>
<path style="fill:#333333; stroke:none;" d="M152.333 1940.67L152.667 1941.33L152.333 1940.67z"/>
<path style="fill:#a6a6a6; stroke:none;" d="M153 1941L154 1942L153 1941z"/>
<path style="fill:#666666; stroke:none;" d="M152.667 1942.33L153.333 1942.67L152.667 1942.33z"/>
<path style="fill:#a6a6a6; stroke:none;" d="M152 1943L153 1944L152 1943z"/>
<path style="fill:#333333; stroke:none;" d="M153.333 1943.67L153.667 1944.33L153.333 1943.67z"/>
<path style="fill:#a6a6a6; stroke:none;" d="M154 1944L155 1945L154 1944z"/>
<path style="fill:#666666; stroke:none;" d="M153.667 1945.33L154.333 1945.67L153.667 1945.33z"/>
<path style="fill:#a6a6a6; stroke:none;" d="M153 1946L154 1947L153 1946z"/>
<path style="fill:#333333; stroke:none;" d="M154.333 1946.67L154.667 1947.33L154.333 1946.67z"/>
<path style="fill:#a6a6a6; stroke:none;" d="M155 1947L156 1948L155 1947z"/>
<path style="fill:#666666; stroke:none;" d="M154.667 1948.33L155.333 1948.67L154.667 1948.33z"/>
<path style="fill:#a6a6a6; stroke:none;" d="M154 1949L155 1950L154 1949z"/>
<path style="fill:#333333; stroke:none;" d="M155.333 1949.67L155.667 1950.33L155.333 1949.67z"/>
<path style="fill:#a6a6a6; stroke:none;" d="M489 1949L490 1950L489 1949z"/>
<path style="fill:#333333; stroke:none;" d="M490 1949L490 1950L550 1950L531 1949L490 1949z"/>
<path style="fill:#a6a6a6; stroke:none;" d="M156 1950L157 1951L156 1950z"/>
<path style="fill:#666666; stroke:none;" d="M155.667 1951.33L156.333 1951.67L155.667 1951.33z"/>
<path style="fill:#a6a6a6; stroke:none;" d="M155 1952L156 1953L155 1952z"/>
<path style="fill:#333333; stroke:none;" d="M156.333 1952.67L156.667 1953.33L156.333 1952.67z"/>
<path style="fill:#a6a6a6; stroke:none;" d="M157 1953L158 1954L157 1953z"/>
<path style="fill:#666666; stroke:none;" d="M156.667 1954.33L157.333 1954.67L156.667 1954.33z"/>
<path style="fill:#a6a6a6; stroke:none;" d="M156 1955L157 1956L156 1955z"/>
<path style="fill:#333333; stroke:none;" d="M157.333 1955.67L157.667 1956.33L157.333 1955.67z"/>
<path style="fill:#a6a6a6; stroke:none;" d="M158 1956L159 1957L158 1956z"/>
<path style="fill:#666666; stroke:none;" d="M157.667 1957.33L158.333 1957.67L157.667 1957.33z"/>
<path style="fill:#a6a6a6; stroke:none;" d="M157 1958L158 1959L157 1958z"/>
<path style="fill:#333333; stroke:none;" d="M158.333 1958.67L158.667 1959.33L158.333 1958.67z"/>
<path style="fill:#a6a6a6; stroke:none;" d="M159 1959L160 1960L159 1959z"/>
<path style="fill:#666666; stroke:none;" d="M158.667 1960.33L159.333 1960.67L158.667 1960.33z"/>
<path style="fill:#a6a6a6; stroke:none;" d="M158 1961L159 1962L158 1961z"/>
<path style="fill:#333333; stroke:none;" d="M159.333 1961.67L159.667 1962.33L159.333 1961.67z"/>
<path style="fill:#a6a6a6; stroke:none;" d="M160 1962L161 1963L160 1962z"/>
<path style="fill:#666666; stroke:none;" d="M159.667 1963.33L160.333 1963.67L159.667 1963.33z"/>
<path style="fill:#a6a6a6; stroke:none;" d="M159 1964L160 1965L159 1964z"/>
<path style="fill:#333333; stroke:none;" d="M160.333 1964.67L160.667 1965.33L160.333 1964.67z"/>
<path style="fill:#a6a6a6; stroke:none;" d="M161 1965L162 1966L161 1965z"/>
<path style="fill:#666666; stroke:none;" d="M160.667 1966.33L161.333 1966.67L160.667 1966.33z"/>
<path style="fill:#a6a6a6; stroke:none;" d="M160 1967L161 1968L160 1967z"/>
<path style="fill:#333333; stroke:none;" d="M161.333 1967.67L161.667 1968.33L161.333 1967.67z"/>
<path style="fill:#a6a6a6; stroke:none;" d="M162 1968L163 1969L162 1968z"/>
<path style="fill:#666666; stroke:none;" d="M161.667 1969.33L162.333 1969.67L161.667 1969.33z"/>
<path style="fill:#a6a6a6; stroke:none;" d="M161 1970L162 1971L161 1970z"/>
<path style="fill:#333333; stroke:none;" d="M162.333 1970.67L162.667 1971.33L162.333 1970.67z"/>
<path style="fill:#a6a6a6; stroke:none;" d="M163 1971L164 1972L163 1971z"/>
<path style="fill:#666666; stroke:none;" d="M162.667 1972.33L163.333 1972.67L162.667 1972.33z"/>
<path style="fill:#a6a6a6; stroke:none;" d="M162 1973L163 1974L162 1973z"/>
<path style="fill:#333333; stroke:none;" d="M163.333 1973.67L163.667 1974.33L163.333 1973.67z"/>
<path style="fill:#a6a6a6; stroke:none;" d="M164 1974L165 1975L164 1974z"/>
<path style="fill:#666666; stroke:none;" d="M163.667 1975.33L164.333 1975.67L163.667 1975.33z"/>
<path style="fill:#a6a6a6; stroke:none;" d="M163 1976L165 1978L163 1976z"/>
<path style="fill:#333333; stroke:none;" d="M164 1976L165 1977L164 1976z"/>
<path style="fill:#a6a6a6; stroke:none;" d="M80 2068L80 2067L25 2067L25 2049L80 2049C75.5314 2047.12 69.8086 2048 65 2048C53.7267 2048 37.9412 2045.11 27.1481 2048.32C22.6587 2049.65 22.2406 2064.31 25.6034 2066.97C28.6982 2069.42 36.2688 2068 40 2068L80 2068z"/>
<path style="fill:#010101; stroke:none;" d="M25 2049L25 2067L79 2067L79 2049L25 2049z"/>
<path style="fill:#333333; stroke:none;" d="M79 2049L79 2067L80 2067L79 2049z"/>
<path style="fill:#a6a6a6; stroke:none;" d="M163 2062L164 2063L163 2062z"/>
<path style="fill:#333333; stroke:none;" d="M164 2062L165 2063L164 2062z"/>
<path style="fill:#666666; stroke:none;" d="M163.667 2063.33L164.333 2063.67L163.667 2063.33z"/>
<path style="fill:#333333; stroke:none;" d="M163.333 2064.67L163.667 2065.33L163.333 2064.67z"/>
<path style="fill:#a6a6a6; stroke:none;" d="M164 2064L165 2065L164 2064M162 2065L163 2066L162 2065z"/>
<path style="fill:#666666; stroke:none;" d="M162.667 2066.33L163.333 2066.67L162.667 2066.33z"/>
<path style="fill:#333333; stroke:none;" d="M162 2067L163 2068L162 2067z"/>
<path style="fill:#a6a6a6; stroke:none;" d="M163 2067L164 2068L163 2067z"/>
<path style="fill:#010101; stroke:none;" d="M162 2068L163 2069L162 2068z"/>
<path style="fill:#666666; stroke:none;" d="M161.667 2069.33L162.333 2069.67L161.667 2069.33z"/>
<path style="fill:#333333; stroke:none;" d="M161.333 2070.67L161.667 2071.33L161.333 2070.67z"/>
<path style="fill:#a6a6a6; stroke:none;" d="M162 2070L163 2071L162 2070M160 2071L161 2072L160 2071z"/>
<path style="fill:#666666; stroke:none;" d="M160.667 2072.33L161.333 2072.67L160.667 2072.33z"/>
<path style="fill:#333333; stroke:none;" d="M160.333 2073.67L160.667 2074.33L160.333 2073.67z"/>
<path style="fill:#a6a6a6; stroke:none;" d="M161 2073L162 2074L161 2073M159 2074L160 2075L159 2074z"/>
<path style="fill:#666666; stroke:none;" d="M159.667 2075.33L160.333 2075.67L159.667 2075.33z"/>
<path style="fill:#333333; stroke:none;" d="M159.333 2076.67L159.667 2077.33L159.333 2076.67z"/>
<path style="fill:#a6a6a6; stroke:none;" d="M160 2076L161 2077L160 2076M158 2077L159 2078L158 2077z"/>
<path style="fill:#666666; stroke:none;" d="M158.667 2078.33L159.333 2078.67L158.667 2078.33z"/>
<path style="fill:#333333; stroke:none;" d="M158.333 2079.67L158.667 2080.33L158.333 2079.67z"/>
<path style="fill:#a6a6a6; stroke:none;" d="M159 2079L160 2080L159 2079M157 2080L158 2081L157 2080z"/>
<path style="fill:#666666; stroke:none;" d="M157.667 2081.33L158.333 2081.67L157.667 2081.33z"/>
<path style="fill:#333333; stroke:none;" d="M157.333 2082.67L157.667 2083.33L157.333 2082.67z"/>
<path style="fill:#a6a6a6; stroke:none;" d="M158 2082L159 2083L158 2082M156 2083L157 2084L156 2083z"/>
<path style="fill:#666666; stroke:none;" d="M156.667 2084.33L157.333 2084.67L156.667 2084.33z"/>
<path style="fill:#333333; stroke:none;" d="M156.333 2085.67L156.667 2086.33L156.333 2085.67z"/>
<path style="fill:#a6a6a6; stroke:none;" d="M157 2085L158 2086L157 2085M155 2086L156 2087L155 2086z"/>
<path style="fill:#666666; stroke:none;" d="M155.667 2087.33L156.333 2087.67L155.667 2087.33z"/>
<path style="fill:#333333; stroke:none;" d="M155.333 2088.67L155.667 2089.33L155.333 2088.67z"/>
<path style="fill:#a6a6a6; stroke:none;" d="M156 2088L157 2089L156 2088M154 2089L155 2090L154 2089z"/>
<path style="fill:#666666; stroke:none;" d="M154.667 2090.33L155.333 2090.67L154.667 2090.33z"/>
<path style="fill:#333333; stroke:none;" d="M154.333 2091.67L154.667 2092.33L154.333 2091.67z"/>
<path style="fill:#a6a6a6; stroke:none;" d="M155 2091L156 2092L155 2091M153 2092L154 2093L153 2092z"/>
<path style="fill:#666666; stroke:none;" d="M153.667 2093.33L154.333 2093.67L153.667 2093.33z"/>
<path style="fill:#333333; stroke:none;" d="M153.333 2094.67L153.667 2095.33L153.333 2094.67z"/>
<path style="fill:#a6a6a6; stroke:none;" d="M154 2094L155 2095L154 2094M152 2095L153 2096L152 2095z"/>
<path style="fill:#666666; stroke:none;" d="M152.667 2096.33L153.333 2096.67L152.667 2096.33z"/>
<path style="fill:#333333; stroke:none;" d="M152 2097L153 2098L152 2097z"/>
<path style="fill:#a6a6a6; stroke:none;" d="M153 2097L154 2098L153 2097M151 2098L152 2099L151 2098z"/>
<path style="fill:#010101; stroke:none;" d="M152 2098L153 2099L152 2098z"/>
<path style="fill:#666666; stroke:none;" d="M151.667 2099.33L152.333 2099.67L151.667 2099.33z"/>
<path style="fill:#333333; stroke:none;" d="M151.333 2100.67L151.667 2101.33L151.333 2100.67z"/>
<path style="fill:#a6a6a6; stroke:none;" d="M152 2100L153 2101L152 2100M150 2101L151 2102L150 2101z"/>
<path style="fill:#666666; stroke:none;" d="M150.667 2102.33L151.333 2102.67L150.667 2102.33z"/>
<path style="fill:#333333; stroke:none;" d="M150.333 2103.67L150.667 2104.33L150.333 2103.67z"/>
<path style="fill:#a6a6a6; stroke:none;" d="M151 2103L152 2104L151 2103M149 2104L150 2105L149 2104z"/>
<path style="fill:#666666; stroke:none;" d="M149.667 2105.33L150.333 2105.67L149.667 2105.33z"/>
<path style="fill:#333333; stroke:none;" d="M149.333 2106.67L149.667 2107.33L149.333 2106.67z"/>
<path style="fill:#a6a6a6; stroke:none;" d="M150 2106L151 2107L150 2106M148 2107L149 2108L148 2107z"/>
<path style="fill:#666666; stroke:none;" d="M148.667 2108.33L149.333 2108.67L148.667 2108.33z"/>
<path style="fill:#333333; stroke:none;" d="M148.333 2109.67L148.667 2110.33L148.333 2109.67z"/>
<path style="fill:#a6a6a6; stroke:none;" d="M149 2109L150 2110L149 2109M147 2110L148 2111L147 2110z"/>
<path style="fill:#666666; stroke:none;" d="M147.667 2111.33L148.333 2111.67L147.667 2111.33z"/>
<path style="fill:#333333; stroke:none;" d="M147.333 2112.67L147.667 2113.33L147.333 2112.67z"/>
<path style="fill:#a6a6a6; stroke:none;" d="M148 2112L149 2113L148 2112M146 2113L147 2114L146 2113z"/>
<path style="fill:#666666; stroke:none;" d="M146.667 2114.33L147.333 2114.67L146.667 2114.33z"/>
<path style="fill:#333333; stroke:none;" d="M146.333 2115.67L146.667 2116.33L146.333 2115.67z"/>
<path style="fill:#a6a6a6; stroke:none;" d="M147 2115L148 2116L147 2115M145 2116L146 2117L145 2116z"/>
<path style="fill:#666666; stroke:none;" d="M145.667 2117.33L146.333 2117.67L145.667 2117.33z"/>
<path style="fill:#333333; stroke:none;" d="M145.333 2118.67L145.667 2119.33L145.333 2118.67z"/>
<path style="fill:#a6a6a6; stroke:none;" d="M146 2118L147 2119L146 2118M144 2119L145 2120L144 2119z"/>
<path style="fill:#666666; stroke:none;" d="M144.667 2120.33L145.333 2120.67L144.667 2120.33z"/>
<path style="fill:#333333; stroke:none;" d="M144.333 2121.67L144.667 2122.33L144.333 2121.67z"/>
<path style="fill:#a6a6a6; stroke:none;" d="M145 2121L146 2122L145 2121M143 2122L144 2123L143 2122z"/>
<path style="fill:#666666; stroke:none;" d="M143.667 2123.33L144.333 2123.67L143.667 2123.33z"/>
<path style="fill:#333333; stroke:none;" d="M143.333 2124.67L143.667 2125.33L143.333 2124.67z"/>
<path style="fill:#a6a6a6; stroke:none;" d="M144 2124L145 2125L144 2124M142 2125L143 2126L142 2125z"/>
<path style="fill:#666666; stroke:none;" d="M142.667 2126.33L143.333 2126.67L142.667 2126.33z"/>
<path style="fill:#333333; stroke:none;" d="M142.333 2127.67L142.667 2128.33L142.333 2127.67z"/>
<path style="fill:#a6a6a6; stroke:none;" d="M143 2127L144 2128L143 2127M141 2128L142 2129L141 2128z"/>
<path style="fill:#666666; stroke:none;" d="M141.667 2129.33L142.333 2129.67L141.667 2129.33z"/>
<path style="fill:#333333; stroke:none;" d="M141.333 2130.67L141.667 2131.33L141.333 2130.67z"/>
<path style="fill:#a6a6a6; stroke:none;" d="M142 2130L143 2131L142 2130M140 2131L141 2132L140 2131z"/>
<path style="fill:#666666; stroke:none;" d="M140.667 2132.33L141.333 2132.67L140.667 2132.33z"/>
<path style="fill:#333333; stroke:none;" d="M140.333 2133.67L140.667 2134.33L140.333 2133.67z"/>
<path style="fill:#a6a6a6; stroke:none;" d="M141 2133L142 2134L141 2133M139 2134L140 2135L139 2134z"/>
<path style="fill:#666666; stroke:none;" d="M139.667 2135.33L140.333 2135.67L139.667 2135.33z"/>
<path style="fill:#333333; stroke:none;" d="M139.333 2136.67L139.667 2137.33L139.333 2136.67z"/>
<path style="fill:#a6a6a6; stroke:none;" d="M140 2136L141 2137L140 2136M138 2137L139 2138L138 2137z"/>
<path style="fill:#666666; stroke:none;" d="M138.667 2138.33L139.333 2138.67L138.667 2138.33z"/>
<path style="fill:#333333; stroke:none;" d="M138.333 2139.67L138.667 2140.33L138.333 2139.67z"/>
<path style="fill:#a6a6a6; stroke:none;" d="M139 2139L140 2140L139 2139M137 2140L138 2141L137 2140z"/>
<path style="fill:#666666; stroke:none;" d="M137.667 2141.33L138.333 2141.67L137.667 2141.33z"/>
<path style="fill:#333333; stroke:none;" d="M137.333 2142.67L137.667 2143.33L137.333 2142.67z"/>
<path style="fill:#a6a6a6; stroke:none;" d="M138 2142L139 2143L138 2142M136 2143L137 2144L136 2143M137 2144L138 2145L137 2144M255 2172L256 2173L255 2172M252 2173L252 2191L253 2191L252 2173z"/>
<path style="fill:#010101; stroke:none;" d="M253 2173L253 2191L313 2191L313 2173L253 2173z"/>
<path style="fill:#a6a6a6; stroke:none;" d="M313 2173L313 2191L314 2191L313 2173z"/>
<path style="fill:#666666; stroke:none;" d="M253 2191L253 2192L313 2192L294 2191L253 2191z"/>
<path style="fill:#010101; stroke:none;" d="M440 2274L440 2298L506 2298L506 2274L440 2274z"/>
<path style="fill:#333333; stroke:none;" d="M440 2298L440 2299L505 2299L484 2298L440 2298z"/>
<path style="fill:#666666; stroke:none;" d="M505 2298L506 2299L505 2298z"/>
<path style="fill:#a6a6a6; stroke:none;" d="M296 2318L296 2342L297 2342L296 2318z"/>
<path style="fill:#010101; stroke:none;" d="M297 2318L297 2342L362 2342L362 2318L297 2318z"/>
<path style="fill:#333333; stroke:none;" d="M362 2318L362 2342L297 2342L297 2343L344 2343C348.32 2343 357.852 2344.78 361.397 2341.97C365.206 2338.96 363.704 2322.06 362 2318z"/>
<path style="fill:#666666; stroke:none;" d="M362 2342L363 2343L362 2342z"/>
<path style="fill:#333333; stroke:none;" d="M71 2447L71 2448L126 2448L108 2447L71 2447z"/>
<path style="fill:#010101; stroke:none;" d="M71 2448L71 2472L126 2472L126 2448L71 2448z"/>
<path style="fill:#a6a6a6; stroke:none;" d="M71 2606L71 2607L126 2607L108 2606L71 2606z"/>
<path style="fill:#010101; stroke:none;" d="M71 2607L71 2631L126 2631L126 2607L71 2607z"/>
<path style="fill:#666666; stroke:none;" d="M71 2631L71 2632L126 2632L108 2631L71 2631z"/>
<path style="fill:#333333; stroke:none;" d="M368 2714L368 2763L369 2763C369 2749.21 373.309 2726.65 368 2714z"/>
<path style="fill:#010101; stroke:none;" d="M369 2714L369 2763L467 2763L467 2714L369 2714z"/>
<path style="fill:#a6a6a6; stroke:none;" d="M467 2714L467 2763L468 2763C468 2749.21 472.309 2726.65 467 2714M368 2763L369 2764L368 2763z"/>
<path style="fill:#666666; stroke:none;" d="M369 2763L369 2764L467 2764L437 2763L369 2763z"/>
<path style="fill:#a6a6a6; stroke:none;" d="M108 2912L108 3022L109 3022L109 2945L108 2912z"/>
<path style="fill:#666666; stroke:none;" d="M109 2912L109 3022L110 3022L110 2945L109 2912z"/>
<path style="fill:#333333; stroke:none;" d="M0 2948L0 2949L24 2949L0 2948z"/>
<path style="fill:#666666; stroke:none;" d="M24 2948L25 2949L24 2948z"/>
<path style="fill:#a6a6a6; stroke:none;" d="M25 2948L25 2967L26 2967L25 2948z"/>
<path style="fill:#666666; stroke:none;" d="M291 2948L292 2949L291 2948z"/>
<path style="fill:#333333; stroke:none;" d="M292 2948L293 2949L292 2948z"/>
<path style="fill:#666666; stroke:none;" d="M293.667 2948.33L294.333 2948.67L293.667 2948.33z"/>
<path style="fill:#333333; stroke:none;" d="M295 2948L295 2949L321 2949L295 2948z"/>
<path style="fill:#666666; stroke:none;" d="M321 2948L322 2949L321 2948z"/>
<path style="fill:#333333; stroke:none;" d="M322.667 2948.33L323.333 2948.67L322.667 2948.33z"/>
<path style="fill:#666666; stroke:none;" d="M473 2948L474 2949L473 2948z"/>
<path style="fill:#333333; stroke:none;" d="M474 2948L475 2949L474 2948z"/>
<path style="fill:#666666; stroke:none;" d="M475.667 2948.33L476.333 2948.67L475.667 2948.33z"/>
<path style="fill:#333333; stroke:none;" d="M477 2948L478 2949L477 2948z"/>
<path style="fill:#666666; stroke:none;" d="M478.667 2948.33L479.333 2948.67L478.667 2948.33z"/>
<path style="fill:#333333; stroke:none;" d="M480 2948L480 2949L550 2949L528 2948L480 2948z"/>
<path style="fill:#010101; stroke:none;" d="M0 2949L0 2967L25 2967L25 2949L0 2949M291 2949L291 2967L324 2967L324 2949L291 2949z"/>
<path style="fill:#a6a6a6; stroke:none;" d="M472 2949L473 2950L472 2949z"/>
<path style="fill:#010101; stroke:none;" d="M473 2949L473 2967L550 2967L550 2949L473 2949z"/>
<path style="fill:#a6a6a6; stroke:none;" d="M472 2963L473 2964L472 2963M182 3134L183 3135L182 3134M184 3134L184 3135L200 3135L184 3134M208 3134L208 3135L258 3135C245.11 3129.59 222.049 3134 208 3134M260.667 3134.33L261.333 3134.67L260.667 3134.33z"/>
<path style="fill:#666666; stroke:none;" d="M181 3135L182.603 3152.97L204 3154L264 3154L264 3153L182 3153L181 3135z"/>
<path style="fill:#010101; stroke:none;" d="M182 3135L182 3153L264 3153L264 3135L182 3135z"/>
<path style="fill:#a6a6a6; stroke:none;" d="M181 3153L182 3154L181 3153z"/>
<path style="fill:#010101; stroke:none;" d="M38 3157L38 3175L120 3175L120 3157L38 3157z"/>
<path style="fill:#333333; stroke:none;" d="M120 3157L121 3158L120 3157z"/>
<path style="fill:#666666; stroke:none;" d="M120 3158L121 3159L120 3158z"/>
<path style="fill:#333333; stroke:none;" d="M120 3159L121 3160L120 3159z"/>
<path style="fill:#666666; stroke:none;" d="M120 3160L120 3169L121 3169L120 3160z"/>
<path style="fill:#333333; stroke:none;" d="M120 3169L121 3170L120 3169z"/>
<path style="fill:#666666; stroke:none;" d="M120 3170L120 3173L121 3173L120 3170z"/>
<path style="fill:#333333; stroke:none;" d="M120 3173L121 3174L120 3173z"/>
<path style="fill:#666666; stroke:none;" d="M120 3174L92 3175L38 3175L38 3176L93 3176L121 3175L120 3174z"/>
<path style="fill:#a6a6a6; stroke:none;" d="M120 3175L121 3176L120 3175z"/>
<path style="fill:#666666; stroke:none;" d="M391 3272L391 3273L454 3273L454 3291C455.479 3287.48 456.808 3275.73 453.397 3273.03C449.852 3270.22 440.32 3272 436 3272L391 3272z"/>
<path style="fill:#a6a6a6; stroke:none;" d="M454 3272L455 3273L454 3272M390 3273L391.028 3290.4L407 3292L454 3292L454 3291L391 3291L390 3273z"/>
<path style="fill:#010101; stroke:none;" d="M391 3273L391 3291L454 3291L454 3273L391 3273z"/>
<path style="fill:#a6a6a6; stroke:none;" d="M181 3371L181 3372L264 3372L238 3371L181 3371z"/>
<path style="fill:#666666; stroke:none;" d="M181 3372L181 3375L182 3375L181 3372z"/>
<path style="fill:#010101; stroke:none;" d="M182 3372L182 3390L264 3390L264 3372L182 3372z"/>
<path style="fill:#333333; stroke:none;" d="M181 3375L182 3376L181 3375z"/>
<path style="fill:#666666; stroke:none;" d="M181 3376L181 3386L182 3386L181 3376z"/>
<path style="fill:#333333; stroke:none;" d="M181 3386L182 3387L181 3386z"/>
<path style="fill:#666666; stroke:none;" d="M181 3387L181 3390L182 3390L181 3387z"/>
<path style="fill:#a6a6a6; stroke:none;" d="M181 3390L181 3391L264 3391L238 3390L181 3390z"/>
<path style="fill:#010101; stroke:none;" d="M0 3431L0 3517L550 3517L550 3431L0 3431z"/>
</svg>
